<?xml version="1.0" standalone="no"?>
<!DOCTYPE svg PUBLIC "-//W3C//DTD SVG 20010904//EN"
 "http://www.w3.org/TR/2001/REC-SVG-20010904/DTD/svg10.dtd">
<svg version="1.0" xmlns="http://www.w3.org/2000/svg"
 width="1280.000000pt" height="1175.000000pt" viewBox="0 0 1280.000000 1175.000000"
 preserveAspectRatio="xMidYMid meet">
<metadata>
Created by potrace 1.15, written by Peter Selinger 2001-2017
</metadata>
<g transform="translate(0.000000,1175.000000) scale(0.100000,-0.100000)"
fill="#ffffff" stroke="none">
<path d="M778 10836 c-129 -53 -219 -165 -236 -293 -4 -32 0 -314 10 -628 9
-313 31 -1029 48 -1590 17 -561 39 -1312 50 -1670 11 -357 29 -954 40 -1325
11 -371 29 -974 40 -1340 42 -1376 60 -1986 70 -2355 12 -404 18 -448 66 -531
35 -60 125 -141 191 -172 l58 -27 5005 0 5005 0 80 28 c95 34 161 71 234 130
137 114 240 290 285 487 16 67 23 150 76 915 17 237 48 673 70 970 37 495 52
689 125 1610 14 171 36 456 50 635 28 353 135 1624 160 1890 21 232 20 266
-11 328 -53 108 -143 151 -317 154 -62 1 -94 3 -71 5 l40 4 11 57 c37 183 49
527 24 697 -43 292 -102 491 -219 735 -36 75 -130 240 -143 250 -3 3 -12 15
-18 28 -7 13 -19 31 -26 40 -8 9 -36 46 -62 82 -99 134 -279 314 -413 413 -36
26 -73 54 -82 62 -9 7 -27 19 -40 26 -13 6 -25 15 -28 18 -10 13 -175 107
-250 143 -242 116 -420 169 -730 219 -97 15 -473 15 -570 0 -311 -50 -493
-105 -740 -225 -61 -29 -259 -144 -270 -156 -3 -3 -35 -27 -72 -53 -36 -26
-73 -53 -80 -59 -7 -7 -43 -38 -78 -68 -74 -62 -165 -154 -218 -220 -21 -25
-44 -52 -52 -60 -9 -8 -27 -31 -40 -50 -13 -19 -27 -37 -30 -40 -30 -27 -136
-205 -201 -336 -30 -60 -58 -112 -64 -116 -5 -4 17 -9 50 -11 33 -2 -295 -3
-730 -3 l-790 1 -41 22 c-53 28 -103 78 -121 120 -7 18 -56 234 -108 480 -81
383 -99 458 -130 519 -61 124 -196 230 -345 269 -47 13 -360 15 -2230 15
l-2175 0 -57 -24z"/>
</g>
</svg>
